<?xml version="1.0" encoding="utf-8"?>
<!-- Generator: Adobe Illustrator 16.0.4, SVG Export Plug-In . SVG Version: 6.00 Build 0)  -->
<!DOCTYPE svg PUBLIC "-//W3C//DTD SVG 1.1//EN" "http://www.w3.org/Graphics/SVG/1.1/DTD/svg11.dtd">
<svg version="1.1" id="Layer_1" xmlns="http://www.w3.org/2000/svg" xmlns:xlink="http://www.w3.org/1999/xlink" x="0px" y="0px"
	 width="102px" height="33px" viewBox="0 0 102 33" enable-background="new 0 0 102 33" xml:space="preserve">
<g opacity="0.6">
	<path d="M2.259,6.635c-0.324,0-0.613,0.059-0.863,0.2C1.145,6.952,0.924,7.144,0.736,7.41H0.7L0.598,6.723H0v7.03h0.734v-1.997
		c0-0.254-0.018-0.523-0.053-0.806h0.054c0.177,0.2,0.4,0.4,0.7,0.538c0.262,0.1,0.6,0.2,0.9,0.175c0.631,0,1.125-0.219,1.481-0.66
		S4.35,9.943,4.35,9.146c0-0.794-0.175-1.411-0.525-1.851C3.399,6.9,2.9,6.6,2.3,6.635H2.259z M3.154,10.538
		c-0.237,0.34-0.566,0.509-0.985,0.5c-0.501,0-0.866-0.146-1.093-0.44c-0.228-0.294-0.341-0.781-0.341-1.463V8.98
		c0.005-0.599,0.119-1.035,0.34-1.31c0.222-0.275,0.58-0.412,1.076-0.412c0.431,0,0.8,0.2,1,0.485C3.391,8.1,3.5,8.5,3.5,9.1
		c0.01,0.6-0.1,1.1-0.3,1.438H3.154z"/>
	<path d="M7.524,6.635c-0.702,0-1.251,0.221-1.646,0.7C5.482,7.7,5.3,8.4,5.3,9.146c0,0.5,0.1,1,0.3,1.337
		c0.183,0.4,0.4,0.7,0.8,0.9c0.337,0.2,0.7,0.3,1.2,0.305c0.702,0,1.253-0.222,1.651-0.666C9.65,10.577,9.849,9.96,9.849,9.169
		c0-0.771-0.201-1.382-0.601-1.833C8.742,6.9,8.2,6.6,7.5,6.635H7.524z M8.608,10.564c-0.25,0.323-0.615,0.485-1.096,0.5
		s-0.845-0.162-1.093-0.487C6.171,10.252,6.047,9.8,6,9.145c0-0.626,0.122-1.097,0.368-1.411C6.66,7.4,7,7.3,7.5,7.3
		c0.486,0,0.9,0.2,1.1,0.48C8.849,8.08,9,8.58,9,9.186C8.982,9.8,8.9,10.2,8.6,10.564H8.608z"/>
	<path d="M15.522,10.296c-0.052,0.221-0.083,0.385-0.095,0.491h-0.036c-0.059-0.345-0.171-0.771-0.336-1.279l-0.868-2.785H13.39
		L12.5,9.508c-0.053,0.156-0.115,0.368-0.188,0.6c-0.073,0.267-0.125,0.485-0.157,0.653h-0.036c-0.023-0.221-0.117-0.65-0.281-1.288
		c-0.164-0.638-0.402-1.566-0.715-2.785h-0.77l1.323,4.852h0.85l0.917-2.838c0.089-0.28,0.192-0.679,0.31-1.195h0.036
		c0.153,0.6,0.3,1,0.3,1.186l0.89,2.847h0.872l1.341-4.852h-0.761C15.881,8.9,15.6,10.1,15.5,10.296H15.522z"/>
	<path d="M19.943,6.634c-0.65,0-1.166,0.229-1.552,0.7c-0.386,0.461-0.578,1.082-0.578,1.864c0,0.8,0.2,1.4,0.6,1.82
		s0.981,0.7,1.7,0.655c0.328,0,0.607-0.024,0.839-0.073c0.232-0.049,0.477-0.129,0.737-0.241v-0.655
		c-0.51,0.219-1.027,0.328-1.549,0.328c-0.496,0-0.88-0.148-1.153-0.443s-0.417-0.728-0.432-1.297h3.342V8.817
		c0-0.655-0.177-1.183-0.531-1.583S20.551,6.6,19.9,6.634H19.943z M18.592,8.7c0.042-0.449,0.178-0.8,0.41-1.054
		s0.543-0.381,0.932-0.381c0.384,0,0.7,0.1,0.9,0.4c0.207,0.2,0.3,0.6,0.3,1.065h-2.542V8.7z"/>
	<path d="M24.547,6.892c-0.254,0.17-0.47,0.414-0.65,0.73h-0.036l-0.084-0.899h-0.606v4.852h0.735V8.972
		c0-0.475,0.139-0.872,0.418-1.191c0.279-0.319,0.614-0.479,1.007-0.479c0.153,0,0.3,0,0.5,0.1l0.102-0.682
		c-0.171-0.035-0.365-0.053-0.58-0.053C25.079,6.6,24.8,6.7,24.5,6.892H24.547z"/>
	<path d="M28.731,6.634c-0.65,0-1.166,0.229-1.552,0.7c-0.386,0.461-0.578,1.082-0.578,1.864c0,0.8,0.2,1.4,0.6,1.82
		c0.4,0.42,0.981,0.7,1.7,0.655c0.327,0,0.607-0.024,0.839-0.073c0.232-0.049,0.477-0.129,0.737-0.241v-0.655
		c-0.51,0.219-1.027,0.328-1.549,0.328c-0.496,0-0.88-0.148-1.153-0.443s-0.417-0.728-0.432-1.297h3.342V8.817
		c0-0.655-0.177-1.183-0.531-1.583S29.339,6.6,28.7,6.634H28.731z M27.379,8.7c0.042-0.449,0.178-0.8,0.41-1.054
		s0.543-0.381,0.932-0.381c0.384,0,0.7,0.1,0.9,0.4c0.207,0.2,0.3,0.6,0.3,1.065h-2.542V8.7z"/>
	<path d="M35.22,6.66l0.018,0.341l0.031,0.35h-0.058c-0.351-0.478-0.856-0.717-1.514-0.717c-0.632,0-1.125,0.221-1.479,0.664
		c-0.354,0.443-0.531,1.064-0.531,1.9c0,0.8,0.2,1.4,0.5,1.851c0.353,0.4,0.8,0.7,1.5,0.65c0.676,0,1.183-0.246,1.523-0.739h0.04
		l0.098,0.651h0.597V4.687H35.22V6.66z M35.22,9.317c0,0.608-0.113,1.048-0.339,1.321c-0.225,0.274-0.589,0.41-1.091,0.41
		c-0.44,0-0.773-0.158-1-0.474c-0.227-0.316-0.341-0.783-0.341-1.403c0-0.611,0.114-1.084,0.343-1.419C33.02,7.4,33.4,7.2,33.8,7.2
		c0.502,0,0.9,0.1,1.1,0.44c0.228,0.3,0.3,0.8,0.3,1.472v0.205H35.22z"/>
	<path d="M42.126,6.643c-0.673,0-1.18,0.242-1.523,0.726h-0.036c0.024-0.298,0.036-0.634,0.036-1.009V4.687h-0.735v6.888h0.527
		l0.155-0.624h0.053c0.177,0.2,0.4,0.4,0.7,0.5c0.262,0.1,0.6,0.2,0.9,0.175c0.631,0,1.124-0.221,1.48-0.662
		c0.356-0.441,0.534-1.06,0.534-1.857s-0.176-1.413-0.529-1.849C43.258,6.9,42.8,6.6,42.1,6.643H42.126z M43.047,10.554
		c-0.221,0.329-0.557,0.494-1.009,0.494c-0.501,0-0.866-0.146-1.093-0.44c-0.228-0.294-0.341-0.781-0.341-1.463
		c0-0.683,0.11-1.167,0.332-1.455c0.221-0.288,0.582-0.432,1.084-0.432c0.463,0,0.8,0.2,1,0.465c0.222,0.3,0.3,0.8,0.3,1.412
		C43.379,9.8,43.3,10.2,43,10.554H43.047z"/>
	<path d="M48.417,6.724c-0.679,1.877-1.079,2.998-1.202,3.4c-0.122,0.364-0.203,0.622-0.241,0.772h-0.036
		c-0.057-0.281-0.201-0.737-0.434-1.368l-1.062-2.767h-0.788l1.956,4.879l-0.27,0.7c-0.215,0.567-0.575,0.85-1.08,0.85
		c-0.2,0-0.382-0.018-0.544-0.053v0.589c0.218,0.1,0.4,0.1,0.7,0.1c0.401,0,0.74-0.115,1.016-0.343s0.517-0.616,0.724-1.162
		l2.085-5.525h-0.824V6.724z"/>
</g>
<g>
	<path fill="#1B99CF" d="M98.676,27.543h-0.007c-1.315,0.055-2.397,1.094-2.397,2.458s1.076,2.5,2.4,2.5
		c1.35,0,2.387-1.089,2.387-2.465C101.057,28.6,100,27.5,98.7,27.543H98.676z M98.676,31.924h-0.007
		c-0.974,0.002-1.793-0.863-1.793-1.923c0-1.065,0.786-1.913,1.8-1.913c1.033,0,1.801,0.801,1.801,1.9
		C100.502,31.1,99.7,31.9,98.7,31.924H98.676z"/>
	<path fill="#1B99CF" d="M99.503,30.756l-0.216-0.434c0-0.133-0.107-0.133-0.107-0.133v-0.015c0.174-0.047,0.436-0.255,0.436-0.638
		c0-0.455-0.273-0.779-0.756-0.779h-1.237v0.416h0.081v2.071h0.57V30.34h0.188c0.094,0,0.2,0,0.2,0.107l0.33,0.6
		c0.079,0.1,0.2,0.2,0.3,0.18h0.322v-0.408h-0.004c0,0.082-0.109,0.082-0.109-0.062H99.503z M98.723,29.906h-0.313v-0.731h0.319
		c0.215,0,0.301,0.101,0.301,0.363C99.077,29.8,98.9,29.9,98.7,29.906H98.723z"/>
	<path fill="#1B99CF" d="M20.337,22.227v-2.686h-2.165c-1.043,0-1.542,0.324-1.79,1.293l-1.839,7
		c-0.175,0.672-0.248,1.344-0.248,1.344h-0.051c0-0.044-0.125-0.693-0.325-1.344l-2.362-8.332H8.772L6.435,27.8
		c-0.199,0.671-0.298,1.345-0.298,1.345h-0.05c0-0.045-0.041-0.695-0.216-1.345l-1.865-7.038c-0.325-0.973-0.796-1.298-1.84-1.298H0
		v2.687h0.349c0.373,0,0.6,0.101,0.7,0.447l3.034,9.604H7.66l2.14-7.236c0.198-0.671,0.322-1.366,0.322-1.366h0.05
		c0,0,0.1,0.699,0.3,1.366l2.164,7.236h3.625l3.034-9.548c0.149-0.374,0.322-0.448,0.697-0.448h0.345V22.227z"/>
	<path fill="#1B99CF" d="M26.428,19.186h-0.05c-3.788-0.029-6.391,2.783-6.399,6.674c0,3.6,2.6,6.6,6.8,6.6
		c3.159-0.032,5.1-1.947,5.1-1.947l-1.318-2.188c0,0-1.518,1.418-3.558,1.418c-1.947-0.051-3.54-1.135-3.787-3.406h8.753
		c0,0,0.073-0.796,0.073-1.169C32.055,21.9,30.1,19.2,26.4,19.186H26.428z M23.319,24.133c0.349-1.592,1.491-2.561,3.108-2.561
		c1.294,0,2.3,1,2.4,2.561H23.319z"/>
	<path fill="#1B99CF" d="M40.934,19.227c-2.686,0-3.806,1.766-3.806,1.766h-0.049c0,0,0.049-0.448,0.049-1.069v-3.681
		c0-1.189-0.562-1.731-1.731-1.731h-3.008v2.688h0.994c0.348,0,0.5,0.2,0.5,0.547h-0.002V32.17h2.984v-0.646
		c0-0.521,0-0.847,0-0.847h0.051c0,0,1.1,1.8,3.8,1.791c3.357,0,5.818-2.61,5.818-6.64C46.561,21.9,44.4,19.2,40.9,19.227H40.934z
		 M40.146,29.807h-0.024c-2.057-0.046-3.134-1.992-3.134-3.904c0-2.812,1.542-4.006,3.183-4.006c1.865,0,3.2,1.6,3.2,3.979
		C43.329,28.4,41.9,29.8,40.1,29.807H40.146z"/>
	<path fill="#1B99CF" d="M58.088,29.807l-2.14-3.656c-0.435-0.803-0.843-1.021-0.866-1.021v-0.05l3.107-3.63h1.666v-1.865h-5.719
		v1.865h1.641l-2.512,2.959h-1.839v-9.798h-4.503v1.866h2.116v13.826h-1.989h-0.067v1.866h6.068v-1.866h-1.691v-4.054h0.995
		c0.547,0,0.899,0,1.199,0.496l2.486,4.254c0.548,1,0.9,1.2,2.1,1.17h1.892v-1.866h-0.798C58.521,30.3,58.3,30.2,58.1,29.807H58.088
		z"/>
	<rect x="62.9" y="14.6" fill="#1B99CF" width="2.5" height="2.5"/>
	<polygon fill="#1B99CF" points="65.3,19.6 60.8,19.6 60.8,21.4 62.9,21.4 62.9,30.3 61,30.3 61,30.3 61,32.2 67.3,32.2 67.3,30.3 
		65.3,30.3 	"/>
	<path fill="#1B99CF" d="M70.82,27.343V21.45h3.008v-1.867H70.82v-3.456h-2.363v3.456h-2.163v1.867h2.113h0.021v6.065
		c0,4.2,3.2,4.7,4.801,4.7c0.521,0.101,0.899,0,0.899,0v-2.014c0,0-0.224,0.024-0.571,0C72.551,30.3,70.8,29.9,70.8,27.343H70.82z"
		/>
	<path fill="#1B99CF" d="M81.029,19.285L81.029,19.285c-3.571-0.021-6.291,2.576-6.352,6.582c0,3.699,2.7,6.6,6.7,6.6
		c3.009,0,4.899-1.729,4.899-1.729l-0.994-1.77c0,0-1.566,1.42-3.754,1.42c-2.166,0.051-4.182-1.466-4.329-4.279h9.2
		c0,0,0.076-0.596,0.076-0.918C86.441,21.9,84.6,19.3,81,19.285H81.029z M77.301,24.557c0.346-2.111,1.84-3.355,3.68-3.355
		c1.59,0,2.9,1.1,3,3.355H77.301z"/>
	<path fill="#1B99CF" d="M97.225,14.139c-1.56,7.438-5.621,15.787-6.957,18.253c0.398-0.938,4.709-11.561,6.096-18.519
		c-4.069-1.585-11.881-1.728-12.735-1.698c0.002-0.001,0.004-0.002,0.006-0.003c-0.008,0.001-0.017,0.002-0.024,0
		c5.347,5.9,7.201,16.8,6.601,20.289h0.007c0.001-0.001,0.006-0.012,0.008-0.019c3.326-3.92,9.985-11.692,11.192-15.996
		c-1.651-1.409-3.198-1.95-4.172-2.313h-0.021V14.139z"/>
	<path fill="#1B99CF" d="M95.427,0h-0.005c0.006,0,0,0,0,0.019C95.438,0,95.4,0,95.4,0H95.427z"/>
	<path fill="#1B99CF" d="M97.374,13.389c1.979,0.7,3.7,2.3,4.101,3.03c0.224-3.964-3.879-14.414-6.048-16.4
		C96.453,1.4,98.5,7.8,97.4,13.389H97.374z"/>
	<path fill="#1B99CF" d="M96.486,13.048C97.576,4.8,96,1.3,95.4,0c-4.508,6.924-6.491,9.089-11.789,12.2
		C87.375,11.5,93.4,12,96.5,13.048H96.486z"/>
</g>
</svg>
